<svg width="1376" height="778" viewBox="0 0 1376 778" fill="none" xmlns="http://www.w3.org/2000/svg">
<mask id="mask0" mask-type="alpha" maskUnits="userSpaceOnUse" x="0" y="0" width="1376" height="778">
<path d="M0 0H1376V778H0V0Z" fill="#C4C4C4"/>
</mask>
<g mask="url(#mask0)">
<rect x="-0.860352" y="-16.9437" width="1430.18" height="814.711" fill="url(#paint0_linear)"/>
<g filter="url(#filter0_f)">
<path d="M-79.561 -10C-133.471 133.638 -208.944 415.713 -79.561 394.91C214.667 347.603 343.475 121.989 588 -10H-79.561Z" fill="url(#paint1_linear)"/>
</g>
<path d="M-77.1442 -10C-132.878 129.039 -210.904 402.081 -77.1442 381.945C227.037 336.152 360.202 117.762 613 -10H-77.1442Z" fill="url(#paint2_linear)"/>
<g filter="url(#filter1_f)">
<path d="M371.922 1141.16C611.645 878.369 1225.57 373.802 1468.22 349.275C1746.53 214.724 1749.84 629.589 1716.71 853.841C1188.54 1037.21 180.143 1351.4 371.922 1141.16Z" fill="url(#paint3_linear)"/>
</g>
<path d="M436 1138C668.162 829.376 1281.47 286.516 1584.53 262C1584.53 316.286 1617.08 591.049 1584.53 825.874C1065.62 1017.89 920.954 1015 436 1138Z" fill="url(#paint4_linear)"/>
</g>
<defs>
<filter id="filter0_f" x="-168.2" y="-27.2" width="773.4" height="440.4" filterUnits="userSpaceOnUse" color-interpolation-filters="sRGB">
<feFlood flood-opacity="0" result="BackgroundImageFix"/>
<feBlend mode="normal" in="SourceGraphic" in2="BackgroundImageFix" result="shape"/>
<feGaussianBlur stdDeviation="8.6" result="effect1_foregroundBlur"/>
</filter>
<filter id="filter1_f" x="319.28" y="294.28" width="1440.44" height="945.439" filterUnits="userSpaceOnUse" color-interpolation-filters="sRGB">
<feFlood flood-opacity="0" result="BackgroundImageFix"/>
<feBlend mode="normal" in="SourceGraphic" in2="BackgroundImageFix" result="shape"/>
<feGaussianBlur stdDeviation="14.3598" result="effect1_foregroundBlur"/>
</filter>
<linearGradient id="paint0_linear" x1="1285.7" y1="-16.9437" x2="-135.013" y2="298.643" gradientUnits="userSpaceOnUse">
<stop offset="0.0885417" stop-color="#0B2620"/>
<stop offset="0.836437" stop-color="#127059"/>
<stop offset="1" stop-color="#05211A"/>
</linearGradient>
<linearGradient id="paint1_linear" x1="513.789" y1="-10" x2="-73.4824" y2="134.902" gradientUnits="userSpaceOnUse">
<stop stop-color="#163830"/>
<stop offset="0.53125" stop-color="#043025"/>
<stop offset="1" stop-color="#5C6C68"/>
</linearGradient>
<linearGradient id="paint2_linear" x1="536.278" y1="-10" x2="-65.9986" y2="148.714" gradientUnits="userSpaceOnUse">
<stop stop-color="#165F56"/>
<stop offset="0.505208" stop-color="#0E3C3F"/>
<stop offset="1" stop-color="#094A3F"/>
</linearGradient>
<linearGradient id="paint3_linear" x1="1089.63" y1="533.231" x2="1646.58" y2="1242.65" gradientUnits="userSpaceOnUse">
<stop offset="0.0591828" stop-color="#0F1221"/>
<stop offset="1" stop-color="#3C3CA1"/>
</linearGradient>
<linearGradient id="paint4_linear" x1="1070.33" y1="435.365" x2="1745.77" y2="1185.04" gradientUnits="userSpaceOnUse">
<stop stop-color="#1B302B"/>
<stop offset="0.546875" stop-color="#081613"/>
</linearGradient>
</defs>
</svg>
